<svg width="64" height="64" viewBox="0 0 64 64" fill="none" xmlns="http://www.w3.org/2000/svg">
<circle cx="32" cy="32" r="32" fill="#298BD9"/>
<path d="M43.0001 28.7717C42.9528 31.8664 41.9608 34.4943 40.5571 36.9888C38.5123 40.6305 35.813 43.7652 32.7559 46.6132C32.2295 47.1001 31.7909 47.1335 31.2982 46.6666C27.5866 43.1983 24.3406 39.3699 22.3025 34.6811C21.0811 31.8664 20.5614 28.9584 21.4387 25.9237C22.8829 20.9614 27.6811 17.6266 32.8099 18.0334C38.0534 18.4469 42.2645 22.4421 42.8988 27.6045C42.9528 28.058 42.9798 28.5049 43.0001 28.7717ZM25.9062 28.8784C25.9062 32.2266 28.6258 34.9012 32.0203 34.8945C35.3878 34.8878 38.0804 32.2199 38.0939 28.8917C38.1074 25.5369 35.4013 22.8556 32.0068 22.849C28.6191 22.849 25.9062 25.5302 25.9062 28.8784Z" fill="white"/>
</svg>
