<svg width="64" height="64" viewBox="0 0 64 64" fill="none" xmlns="http://www.w3.org/2000/svg">
<circle cx="32" cy="32" r="32" fill="#298BD9"/>
<path d="M45.594 23.3945C45.4169 23.5031 45.2139 23.5863 45.0663 23.7275C41.5829 27.1151 38.1069 30.5099 34.6272 33.9012C33.1697 35.3236 31.8228 35.3199 30.3652 33.8976C26.8892 30.5063 23.4132 27.1115 19.9298 23.7238C19.7859 23.5827 19.5756 23.5067 19.3984 23.3981C19.439 23.3221 19.4833 23.2461 19.5239 23.1737C19.8892 23.1158 20.2508 23.0072 20.6161 23.0072C28.5387 22.9964 36.4649 22.9964 44.3874 23.0072C44.749 23.0072 45.1143 23.1158 45.4759 23.1737C45.5165 23.2461 45.5534 23.3221 45.594 23.3945Z" fill="white"/>
<path d="M19.5571 42.8335C22.4575 39.9308 25.3136 37.0644 28.2619 34.1111C28.6457 34.5128 28.9741 34.882 29.332 35.2258C31.2398 37.0825 33.7564 37.0825 35.6641 35.2367C36.011 34.9001 36.3542 34.5526 36.7121 34.1979C39.6051 37.097 42.4759 39.9707 45.3394 42.8443C45.118 42.8805 44.7564 42.9891 44.3948 42.9891C36.4723 43 28.5497 43 20.6235 42.9891C20.2582 42.9927 19.8929 42.8878 19.5571 42.8335Z" fill="white"/>
<path d="M18.1918 41.5957C18.118 41.1506 18.0073 40.7959 18.0073 40.4376C17.9963 35.4792 17.9963 30.5244 18.0073 25.566C18.0073 25.2077 18.118 24.853 18.1881 24.4115C21.1365 27.3576 23.9999 30.2168 26.7933 33.0072C24.0258 35.7687 21.1549 38.6352 18.1918 41.5957Z" fill="white"/>
<path d="M46.8046 24.4151C46.8784 24.8422 46.9928 25.1932 46.9928 25.5443C47.0039 30.5208 47.0039 35.4973 46.9928 40.4701C46.9928 40.8103 46.8858 41.1505 46.8194 41.5487C43.8895 38.6207 41.0297 35.7651 38.2363 32.9746C40.9706 30.2421 43.8415 27.3757 46.8046 24.4151Z" fill="white"/>
</svg>
